<svg width="217" height="73" viewBox="0 0 217 73" fill="none" xmlns="http://www.w3.org/2000/svg">
<path d="M109.908 51.5519L123.029 25.7436L134.169 48.4423C134.169 48.4423 114.584 46.8081 109.908 51.5519ZM117.483 9.26185H114.901L118.625 16.2094L94.2812 64.5342H103.414C103.894 63.4323 104.551 62.3911 105.359 61.5016C107.725 59.0854 112.437 56.438 122.175 56.4427C131.313 56.445 138.041 56.4801 138.041 56.4801L141.925 64.5342H150.983C150.983 64.5342 128.011 17.0919 127.445 15.9409C124.707 10.3871 121.643 9.26185 117.483 9.26185Z" fill="#F2EDDE"/>
<path d="M83.3253 21.2216C87.1839 16.0412 86.4921 9.54659 86.4921 9.54659H45.7C45.7 9.54659 47.7983 17.6007 54.9174 17.6007H75.7267L47.8166 52.8895C43.9579 58.0721 44.6498 64.5645 44.6498 64.5645H86.9875V56.5103H55.4129C55.4129 56.5103 83.0261 21.6138 83.3253 21.2216Z" fill="#F2EDDE"/>
<path d="M197.449 9.52209V51.5903L168.217 15.7553C168.217 15.7553 165.365 11.8076 161.892 10.1991C159.111 9.01317 154.883 9.39369 154.883 9.39369L158.305 16.2502V64.5423H166.128V26.1369L193.168 59.3036C197.561 63.8046 202.15 64.5703 205.082 64.5703H205.438V9.52209H197.449Z" fill="#F2EDDE"/>
<path d="M16.8639 0.561607L0 17.8044L15.6492 33.7796L0.673551 49.0685C0.673551 49.0685 18.4484 62.7885 14.2587 72.6869C13.9824 73.3359 27.5516 60.6547 30.1317 56.3102C34.6662 48.6809 28.7869 41.9482 18.1493 33.7796L33.7278 17.8044L16.8639 0.561607Z" fill="#F2EDDE"/>
<path d="M212.129 13.3785H212.965C213.826 13.3785 214.104 13.1264 214.104 12.6105C214.104 12.1622 213.89 11.9101 213.086 11.9101H212.129V13.3785ZM212.129 16.0095H211.424V11.3171H213.182C214.278 11.3171 214.81 11.735 214.81 12.6572C214.81 13.4999 214.299 13.8618 213.611 13.9505L214.922 16.0095H214.148L212.924 13.9715H212.129V16.0095ZM212.977 10.2526C211.134 10.2526 209.707 11.7117 209.707 13.654C209.707 15.6383 211.134 17.0741 212.977 17.0741C214.803 17.0741 216.228 15.6383 216.228 13.654C216.228 11.7117 214.803 10.2526 212.977 10.2526ZM212.977 9.59425C215.146 9.59425 217 11.3171 217 13.654C217 16.0095 215.146 17.7324 212.977 17.7324C210.791 17.7324 208.938 16.0095 208.938 13.654C208.938 11.3171 210.791 9.59425 212.977 9.59425Z" fill="#F2EDDE"/>
</svg>
